<svg width="181" height="47" viewBox="0 0 181 47" fill="none" xmlns="http://www.w3.org/2000/svg">
<line x1="1" y1="23.5549" x2="98.4566" y2="23.5549" stroke="#BD9814" stroke-width="1.5"/>
<path d="M71.1797 17.1545C68.0018 11.5931 64.3392 7.85851 57.0763 4.81451C49.8134 1.77052 41.0265 0.482005 32.3553 1.1894C23.6841 1.89679 15.7208 4.55175 9.95133 8.65892C4.18186 12.7661 1.00031 18.0449 1.00031 23.5104L37.0169 23.5104" stroke="#BD9814" stroke-width="1.5"/>
<line x1="179.669" y1="23.4658" x2="82.2123" y2="23.4658" stroke="#BD9814" stroke-width="1.5"/>
<path d="M109.49 29.8663C112.668 35.4276 116.331 39.1622 123.594 42.2062C130.857 45.2502 139.643 46.5387 148.315 45.8314C156.986 45.124 164.949 42.469 170.719 38.3618C176.488 34.2547 179.67 28.9759 179.67 23.5104L143.653 23.5104" stroke="#BD9814" stroke-width="1.5"/>
<line x1="87.1133" y1="24.1052" x2="87.1133" y2="17.2197" stroke="#BD9814" stroke-width="1.5"/>
<line x1="90.8213" y1="27.4829" x2="90.8213" y2="16.8898" stroke="#BD9814" stroke-width="1.5"/>
<circle cx="90.5119" cy="23.046" r="6.66518" transform="rotate(-90 90.5119 23.046)" stroke="#BD9814" stroke-width="1.5"/>
</svg>
